{"asset":{"version":"2.0","generator":"GLTFExporter"},"scenes":[{"nodes":[0,1,2,3]}],"scene":0,"nodes":[{"matrix":[1,0,0,0,0,1,0,0,0,0,1,0,0,200,0,1],"extensions":{"KHR_lights_punctual":{"light":0}}},{"matrix":[1,0,0,0,0,1,0,0,0,0,1,0,100,200,100,1],"extensions":{"KHR_lights_punctual":{"light":1}}},{"matrix":[1,0,0,0,0,1,0,0,0,0,1,0,-100,-200,-100,1],"extensions":{"KHR_lights_punctual":{"light":2}}},{"mesh":0}],"extensions":{"KHR_lights_punctual":{"lights":[{"color":[1,1,1],"intensity":1,"type":"point"},{"color":[1,1,1],"intensity":1,"type":"point"},{"color":[1,1,1],"intensity":1,"type":"point"}]}},"bufferViews":[{"buffer":0,"byteOffset":0,"byteLength":115200,"target":34962,"byteStride":12},{"buffer":0,"byteOffset":115200,"byteLength":115200,"target":34962,"byteStride":12},{"buffer":0,"byteOffset":230400,"byteLength":76800,"target":34962,"byteStride":8},{"buffer":0,"byteOffset":307200,"byteLength":115200,"target":34962,"byteStride":12}],"buffers":[{"byteLength":422400,"uri":"data:application/octet-stream;base64,"}],"accessors":[{"bufferView":0,"componentType":5126,"count":9600,"max":[17.999908447265625,17.08445930480957,7.958861351013184],"min":[-14.777589797973633,-17.08217430114746,-7.958727836608887],"type":"VEC3"},{"bufferView":1,"componentType":5126,"count":9600,"max":[0.9999939799308777,0.9858877658843994,0.9862870573997498],"min":[-0.9999939799308777,-0.9858877658843994,-0.9862870573997498],"type":"VEC3"},{"bufferView":2,"componentType":5126,"count":9600,"max":[1,1],"min":[0,0],"type":"VEC2"},{"bufferView":3,"componentType":5126,"count":9600,"max":[0.75,0.75,0.75],"min":[0.25,0.25,0.25],"type":"VEC3"}],"materials":[{"pbrMetallicRoughness":{"baseColorFactor":[0.12941176470588237,0.5803921568627451,0.807843137254902,1],"metallicFactor":0,"roughnessFactor":1}}],"meshes":[{"primitives":[{"mode":4,"attributes":{"POSITION":0,"NORMAL":1,"TEXCOORD_0":2,"COLOR_0":3},"material":0}]}],"extensionsUsed":["KHR_lights_punctual"]}